# xmcd
#
# Track frame offsets: 
#        150
#        17353
#        32924
#        47708
#        63214
#        80517
#        103170
#        125608
#        136276
#        152026
#        169943
#        191855
#        209644
#        221069
#        244690
#        245318
#        268444
#        279828
#        302883
#        313802
#        331658
#        348758
#
# Disc length: 4729 seconds
#
# Revision: 2
# Processed by: cddbd v1.5.2PL0 Copyright (c) Steve Scherf et al.
# Submitted via: ExactAudioCopy v0.95b4
#
DISCID=48127716
DTITLE=Toxik - World Circus
DYEAR=1988
DGENRE=Thrash Metal
TTITLE0=Heart Attack
TTITLE1=Social Overload
TTITLE2=Pain and Misery
TTITLE3=Voices
TTITLE4=Door to Hell
TTITLE5=World Circus
TTITLE6=47 Seconds of Sanity/Count Your Blessings
TTITLE7=False Prophets
TTITLE8=Haunted Earth
TTITLE9=Victims
TTITLE10=Heart Attack (Demo 'Wasteland 1986')
TTITLE11=Haunted Earth (Demo 'Wasteland 1986')
TTITLE12=False Prophets (Demo 'Wasteland 1986')
TTITLE13=Wasteland (Demo 'Wasteland 1986')
TTITLE14=Skippy Windshield (Demo 'Wasteland 1986')
TTITLE15=Wasteland (Metal Massacre IX)
TTITLE16=Straight Razor
TTITLE17=Finer Points of Tragedy
TTITLE18=Parasite
TTITLE19=Radio Spot
TTITLE20=Radio Spot Fall '87
TTITLE21=Radio Spot with King Diamond
EXTD=
EXTT0=
EXTT1=
EXTT2=
EXTT3=
EXTT4=
EXTT5=
EXTT6=
EXTT7=
EXTT8=
EXTT9=
EXTT10=
EXTT11=
EXTT12=
EXTT13=
EXTT14=
EXTT15=
EXTT16=
EXTT17=
EXTT18=
EXTT19=
EXTT20=
EXTT21=
PLAYORDER=
